<svg width="900" height="700" viewBox="0 0 900 700" fill="none" xmlns="http://www.w3.org/2000/svg">
  <rect width="900" height="700" rx="48" fill="#EFF6FF"/>
  <rect x="52" y="72" width="320" height="160" rx="24" fill="#FFFFFF" stroke="#D1D5DB" stroke-width="2"/>
  <rect x="56" y="86" width="90" height="18" rx="9" fill="#2563EB"/>
  <rect x="56" y="114" width="200" height="16" rx="8" fill="#CBD5E1"/>
  <rect x="56" y="140" width="120" height="16" rx="8" fill="#E2E8F0"/>
  <rect x="52" y="264" width="796" height="368" rx="40" fill="#FFFFFF" stroke="#D1D5DB" stroke-width="2"/>
  <circle cx="592" cy="162" r="78" fill="#C7D2FE"/>
  <circle cx="602" cy="172" r="54" fill="#2563EB" opacity="0.2"/>
  <rect x="424" y="266" width="412" height="24" rx="12" fill="#E0E7FF"/>
  <rect x="424" y="306" width="340" height="18" rx="9" fill="#E0E7FF"/>
  <rect x="424" y="338" width="250" height="18" rx="9" fill="#E0E7FF"/>
  <rect x="424" y="380" width="260" height="18" rx="9" fill="#E0E7FF"/>
  <rect x="424" y="422" width="190" height="18" rx="9" fill="#E0E7FF"/>
  <rect x="80" y="328" width="264" height="220" rx="32" fill="#EFF6FF"/>
  <path d="M80 428C80 393 104 360 140 360H204C240 360 264 393 264 428V468C264 503 240 536 204 536H140C104 536 80 503 80 468V428Z" fill="#2563EB"/>
  <circle cx="172" cy="432" r="36" fill="#93C5FD"/>
  <circle cx="198" cy="490" r="50" fill="#BFDBFE"/>
  <path d="M160 426H184V532H160V426Z" fill="#FFFFFF" opacity="0.7"/>
  <path d="M204 414C204 407.373 198.627 402 192 402H164C157.373 402 152 407.373 152 414V430H204V414Z" fill="#FFFFFF" opacity="0.7"/>
  <text x="60" y="40" font-family="Inter, sans-serif" font-size="32" font-weight="700" fill="#1E293B">Smart University Dashboard</text>
</svg>